<svg width="186" height="299" viewBox="0 0 186 299" fill="none" xmlns="http://www.w3.org/2000/svg">
<path d="M-nan -nanL170.338 41.4508C171.554 43.2223 172.217 45.3149 172.243 47.4636C172.27 49.6123 171.658 51.7205 170.486 53.5213C169.313 55.322 167.633 56.7345 165.658 57.5797C163.682 58.425 161.501 58.6651 159.389 58.2696C157.277 57.8741 155.33 56.8609 153.794 55.3581C152.258 53.8553 151.203 51.9306 150.761 49.8276C150.32 47.7246 150.512 45.5379 151.314 43.5443C152.116 41.5507 153.491 39.8398 155.266 38.6283C157.639 37.006 160.56 36.3921 163.386 36.9213C166.212 37.4505 168.712 39.0795 170.338 41.4508L-nan -nanL-nan -nanZ" stroke="white" stroke-width="0.71" stroke-miterlimit="10"/>
<path d="M-nan -nanL10.0515 74.5515C8.91988 72.934 8.2933 71.0172 8.25102 69.0436C8.20875 67.0699 8.75268 65.128 9.81403 63.4636C10.8754 61.7991 12.4065 60.4868 14.2136 59.6927C16.0207 58.8986 18.0228 58.6584 19.9665 59.0024C21.9102 59.3463 23.7082 60.2591 25.1331 61.6252C26.558 62.9913 27.5459 64.7494 27.9717 66.677C28.3974 68.6047 28.2421 70.6153 27.5251 72.4546C26.8082 74.2939 25.562 75.8793 23.9441 77.0102C21.7756 78.5259 19.094 79.1183 16.4889 78.6573C13.8837 78.1962 11.5683 76.7194 10.0515 74.5515L-nan -nanL-nan -nanZ" stroke="white" stroke-width="0.71" stroke-miterlimit="10"/>
<path opacity="0.38" d="M-nan -nanL6.19012 67.5395C5.6691 66.7959 5.38032 65.9144 5.36032 65.0066C5.34032 64.0988 5.59 63.2055 6.07777 62.4396C6.56554 61.6738 7.26947 61.0699 8.10052 60.7042C8.93156 60.3386 9.85237 60.2277 10.7464 60.3856C11.6405 60.5435 12.4677 60.963 13.1233 61.5912C13.7789 62.2193 14.2334 63.0279 14.4295 63.9144C14.6255 64.801 14.5542 65.7259 14.2246 66.5719C13.895 67.418 13.3218 68.1472 12.5777 68.6674C12.0843 69.0131 11.5277 69.2582 10.9395 69.3887C10.3514 69.5191 9.74336 69.5323 9.15013 69.4275C8.5569 69.3228 7.99014 69.1021 7.48224 68.7781C6.97434 68.4542 6.53526 68.0333 6.19012 67.5395L-nan -nanZ" fill="#FBFFFF"/>
<path opacity="0.26" d="M149.18 95.6087C150.443 97.4526 151.131 99.6296 151.157 101.865C151.182 104.099 150.545 106.292 149.325 108.164C148.105 110.037 146.357 111.506 144.302 112.385C142.248 113.264 139.978 113.514 137.782 113.103C135.585 112.692 133.559 111.639 131.961 110.077C130.363 108.515 129.264 106.514 128.802 104.327C128.341 102.14 128.539 99.8654 129.37 97.7908C130.202 95.7162 131.63 93.9348 133.473 92.6718C135.946 90.9797 138.989 90.3386 141.934 90.8893C144.879 91.4399 147.485 93.1374 149.18 95.6087Z" stroke="#FBFFFF" stroke-width="1.13" stroke-miterlimit="10"/>
<path d="M173.581 94.8237H170.38C170.305 94.8217 170.231 94.8049 170.163 94.7742C170.095 94.7435 170.033 94.6996 169.982 94.645C169.931 94.5903 169.891 94.5261 169.864 94.456C169.838 94.3858 169.826 94.3112 169.829 94.2363V90.8265C169.833 90.6752 169.778 90.5282 169.675 90.4174C169.572 90.3066 169.429 90.2406 169.278 90.2339L-nan -nanL169.278 90.2339C169.203 90.2366 169.129 90.254 169.061 90.2853C168.992 90.3165 168.931 90.3609 168.88 90.416C168.829 90.471 168.789 90.5356 168.763 90.606C168.736 90.6764 168.724 90.7514 168.727 90.8265V94.2363C168.729 94.3114 168.716 94.3862 168.69 94.4564C168.663 94.5265 168.622 94.5907 168.571 94.6453C168.519 94.6998 168.457 94.7437 168.389 94.7743C168.32 94.8049 168.246 94.8217 168.171 94.8237H164.985C164.91 94.8264 164.836 94.8439 164.768 94.8751C164.699 94.9063 164.638 94.9507 164.587 95.0058C164.536 95.0608 164.496 95.1254 164.47 95.1958C164.443 95.2663 164.431 95.3412 164.434 95.4163L-nan -nanL164.434 95.4163C164.43 95.5671 164.485 95.7134 164.589 95.8234C164.692 95.9335 164.834 95.9982 164.985 96.0037H168.181C168.256 96.0057 168.33 96.0225 168.399 96.0531C168.468 96.0837 168.529 96.1275 168.581 96.1821C168.633 96.2366 168.673 96.3008 168.7 96.371C168.727 96.4412 168.74 96.5159 168.737 96.591V100.022C168.733 100.172 168.789 100.319 168.892 100.429C168.995 100.539 169.138 100.604 169.288 100.609C169.439 100.604 169.582 100.539 169.685 100.429C169.788 100.319 169.844 100.172 169.839 100.022V96.6066C169.835 96.4558 169.891 96.3095 169.994 96.1995C170.097 96.0895 170.24 96.0247 170.39 96.0193H173.592C173.743 96.0138 173.885 95.949 173.988 95.839C174.091 95.729 174.147 95.5827 174.143 95.4319C174.147 95.3548 174.136 95.2777 174.11 95.2051C174.083 95.1325 174.043 95.0659 173.991 95.0092C173.938 94.9524 173.875 94.9068 173.805 94.875C173.735 94.8431 173.659 94.8257 173.581 94.8237Z" fill="#FBFFFF"/>
<path d="M-nan -nanL184.215 108.338H178.982C178.863 108.338 178.745 108.315 178.635 108.27C178.526 108.224 178.426 108.157 178.342 108.074C178.258 107.99 178.192 107.89 178.146 107.78C178.101 107.67 178.077 107.553 178.077 107.434V102.215C178.077 101.975 177.982 101.745 177.812 101.576C177.643 101.406 177.413 101.311 177.173 101.311C177.054 101.311 176.937 101.334 176.828 101.38C176.718 101.425 176.619 101.492 176.535 101.576C176.452 101.66 176.386 101.76 176.341 101.869C176.296 101.979 176.273 102.097 176.274 102.215V107.455C176.268 107.689 176.172 107.912 176.005 108.077C175.839 108.242 175.614 108.336 175.38 108.338H170.13C170.012 108.338 169.894 108.36 169.785 108.405C169.675 108.45 169.575 108.516 169.491 108.6C169.407 108.684 169.341 108.783 169.295 108.892C169.25 109.002 169.226 109.119 169.226 109.238L-nan -nanL169.226 109.238C169.226 109.478 169.321 109.708 169.491 109.877C169.661 110.047 169.891 110.142 170.13 110.142H175.38C175.62 110.142 175.85 110.237 176.019 110.407C176.189 110.577 176.284 110.807 176.284 111.047V116.286C176.283 116.405 176.306 116.522 176.351 116.632C176.396 116.742 176.462 116.841 176.546 116.925C176.629 117.009 176.729 117.076 176.838 117.122C176.947 117.167 177.065 117.191 177.183 117.191L-nan -nanL177.183 117.191C177.423 117.191 177.653 117.095 177.823 116.926C177.992 116.756 178.088 116.526 178.088 116.286V111.067C178.088 110.827 178.183 110.597 178.352 110.428C178.522 110.258 178.752 110.163 178.992 110.163H184.215C184.455 110.163 184.685 110.068 184.855 109.898C185.024 109.728 185.12 109.498 185.12 109.258L-nan -nanL185.12 109.258C185.122 109.138 185.101 109.019 185.057 108.907C185.013 108.795 184.946 108.693 184.862 108.607C184.778 108.521 184.677 108.453 184.566 108.407C184.455 108.361 184.336 108.338 184.215 108.338L-nan -nanZ" fill="#FBFFFF"/>
<path d="M-nan -nanL15.8674 40.8426H19.3132C19.3938 40.8453 19.473 40.8638 19.5464 40.8971C19.6198 40.9305 19.6859 40.9779 19.7409 41.0368C19.7959 41.0957 19.8388 41.1649 19.8671 41.2404C19.8954 41.3159 19.9085 41.3962 19.9057 41.4767V45.1517C19.9029 45.2323 19.9161 45.3126 19.9443 45.3881C19.9726 45.4636 20.0155 45.5327 20.0705 45.5916C20.1256 45.6505 20.1916 45.698 20.265 45.7313C20.3384 45.7646 20.4177 45.7832 20.4982 45.7859L-nan -nanL20.4982 45.7859C20.6613 45.7804 20.8157 45.7107 20.9277 45.5919C21.0396 45.4731 21.1001 45.3149 21.0959 45.1517V41.4767C21.0931 41.3962 21.1063 41.3159 21.1345 41.2404C21.1628 41.1649 21.2057 41.0957 21.2607 41.0368C21.3157 40.9779 21.3818 40.9305 21.4552 40.8971C21.5286 40.8638 21.6078 40.8453 21.6884 40.8426H25.1342C25.2148 40.8399 25.294 40.8214 25.3674 40.788C25.4408 40.7547 25.5069 40.7072 25.5619 40.6483C25.617 40.5894 25.6598 40.5203 25.6881 40.4448C25.7164 40.3693 25.7295 40.289 25.7267 40.2084L-nan -nanL25.7267 40.2084C25.7295 40.1279 25.7164 40.0475 25.6881 39.9721C25.6598 39.8966 25.617 39.8274 25.5619 39.7685C25.5069 39.7096 25.4408 39.6622 25.3674 39.6288C25.294 39.5955 25.2148 39.577 25.1342 39.5743H21.6884C21.5266 39.5688 21.3736 39.4997 21.2626 39.3819C21.1516 39.264 21.0917 39.1071 21.0959 38.9453V35.2651C21.1001 35.1019 21.0396 34.9437 20.9277 34.8249C20.8157 34.7061 20.6613 34.6364 20.4982 34.631L-nan -nanL20.4982 34.631C20.4177 34.6337 20.3384 34.6522 20.265 34.6855C20.1916 34.7189 20.1256 34.7663 20.0705 34.8252C20.0155 34.8841 19.9726 34.9533 19.9443 35.0288C19.9161 35.1043 19.9029 35.1846 19.9057 35.2651V38.9453C19.9099 39.1071 19.85 39.264 19.739 39.3819C19.628 39.4997 19.475 39.5688 19.3132 39.5743H15.8674C15.7042 39.5797 15.5498 39.6494 15.4379 39.7682C15.3259 39.887 15.2655 40.0452 15.2697 40.2084L-nan -nanL15.2697 40.2084C15.2655 40.3716 15.3259 40.5299 15.4379 40.6486C15.5498 40.7674 15.7042 40.8371 15.8674 40.8426L-nan -nanZ" fill="#92D5E4"/>
<path d="M-nan -nanL0.977104 25.0043H6.61624C6.74431 25.0043 6.87112 25.0296 6.98937 25.0788C7.10763 25.1279 7.215 25.2 7.30532 25.2908C7.39564 25.3816 7.46712 25.4894 7.51566 25.6079C7.56419 25.7265 7.58883 25.8534 7.58814 25.9815V31.6213C7.58811 31.8764 7.68836 32.1213 7.86727 32.3032C8.04618 32.485 8.2894 32.5892 8.54446 32.5933L-nan -nanL8.54446 32.5933C8.80222 32.5933 9.04943 32.4909 9.2317 32.3086C9.41397 32.1264 9.51636 31.8791 9.51636 31.6213V25.9815C9.51636 25.7232 9.61859 25.4754 9.80071 25.2923C9.98283 25.1092 10.23 25.0057 10.4883 25.0043H16.1534C16.4112 25.0043 16.6584 24.9019 16.8406 24.7196C17.0229 24.5373 17.1253 24.2901 17.1253 24.0323C17.1253 23.7745 17.0229 23.5272 16.8406 23.3449C16.6584 23.1626 16.4112 23.0602 16.1534 23.0602H10.5091C10.2513 23.0602 10.0041 22.9578 9.82182 22.7755C9.63955 22.5932 9.53715 22.346 9.53715 22.0882V16.4432C9.53718 16.3138 9.51137 16.1857 9.46123 16.0664C9.4111 15.947 9.33764 15.839 9.24518 15.7484C9.15271 15.6579 9.0431 15.5867 8.92278 15.5391C8.80245 15.4915 8.67383 15.4684 8.54446 15.4712L-nan -nanL8.54446 15.4712C8.28621 15.4712 8.03847 15.5734 7.85537 15.7556C7.67228 15.9377 7.56873 16.1849 7.56735 16.4432V22.0882C7.56735 22.346 7.46496 22.5932 7.28269 22.7755C7.10042 22.9578 6.85321 23.0602 6.59545 23.0602H0.977104C0.718858 23.0602 0.471112 23.1625 0.288018 23.3446C0.104925 23.5268 0.00137365 23.774 0 24.0323C-1.83112e-06 24.1603 0.0253092 24.2872 0.0744767 24.4054C0.123644 24.5237 0.195699 24.6311 0.2865 24.7214C0.377301 24.8118 0.485058 24.8832 0.603575 24.9318C0.722093 24.9803 0.849035 25.005 0.977104 25.0043L-nan -nanZ" fill="#92D5E4"/>
<path opacity="0.38" d="M150.993 137.666L149.881 136.797C149.569 136.554 149.307 136.252 149.112 135.907C148.917 135.563 148.792 135.183 148.743 134.79C148.695 134.397 148.725 133.998 148.831 133.616C148.937 133.235 149.117 132.878 149.362 132.566L157.407 122.217C158.011 121.444 158.897 120.941 159.871 120.818C160.844 120.695 161.827 120.963 162.604 121.562L-nan -nanL162.604 121.562C162.99 121.862 163.314 122.235 163.556 122.66C163.797 123.085 163.953 123.553 164.014 124.038C164.075 124.524 164.04 125.016 163.91 125.487C163.78 125.959 163.559 126.4 163.259 126.786L155.229 137.135C154.738 137.767 154.015 138.178 153.221 138.277C152.427 138.377 151.626 138.157 150.993 137.666Z" fill="#FBFFFF"/>
<path d="M153.773 126.914C153.766 126.905 153.755 126.905 153.748 126.914L149.871 131.901C149.251 132.678 148.958 133.666 149.055 134.655C149.152 135.644 149.631 136.556 150.391 137.198C150.776 137.507 151.218 137.737 151.693 137.873C152.168 138.01 152.665 138.05 153.155 137.993C153.646 137.935 154.12 137.781 154.55 137.538C154.98 137.295 155.358 136.969 155.661 136.579L155.71 136.516C157.876 133.731 157.375 129.719 154.592 127.552L153.779 126.919C153.776 126.917 153.775 126.917 153.773 126.914Z" fill="#FBFFFF"/>
<path d="M-nan -nanL16.3405 111.977C16.2342 111.973 16.1305 111.943 16.039 111.889C14.6081 111.157 13.2943 110.217 12.141 109.097C11.5456 108.517 11.0774 107.818 10.7661 107.047C10.4547 106.276 10.307 105.448 10.3323 104.617C10.4727 102.964 11.7356 101.363 13.3884 101.191C14.1767 101.135 14.957 101.38 15.5716 101.877C15.6737 101.959 15.7701 102.048 15.8602 102.142C16.1707 102.465 17.4221 102.555 17.7769 102.281C18.2959 101.88 18.9292 101.655 19.5848 101.639C20.2404 101.622 20.8841 101.816 21.4223 102.191C21.9605 102.565 22.3651 103.102 22.5773 103.723C22.8045 104.538 22.7755 105.404 22.4942 106.202C21.6314 108.858 19.1471 110.745 16.5952 111.92C16.5146 111.955 16.4282 111.974 16.3405 111.977L-nan -nanZ" fill="#B9E5EE"/>
<path d="M-nan -nanL155.765 82.2809C155.64 82.2867 155.517 82.2598 155.406 82.203C153.692 81.4469 152.101 80.4376 150.687 79.2089C149.278 77.8834 148.239 76.0485 148.291 74.1201C148.343 72.1916 149.71 70.2424 151.617 69.9305C152.531 69.8142 153.455 70.0488 154.202 70.5871C154.317 70.6698 154.426 70.7587 154.53 70.8532C154.908 71.198 156.402 71.2071 156.785 70.8688C157.367 70.3551 158.1 70.044 158.874 69.9819C159.648 69.9198 160.421 70.1102 161.078 70.5245C161.734 70.9388 162.239 71.5548 162.516 72.28C162.835 73.2119 162.857 74.22 162.578 75.1649C161.752 78.3149 158.987 80.6748 156.097 82.1978C155.994 82.2509 155.88 82.2793 155.765 82.2809L-nan -nanZ" fill="#B9E5EE"/>
<path opacity="0.38" d="M-nan -nanL175.671 22.7537C176.171 23.486 176.444 24.3503 176.453 25.2373C176.463 26.1244 176.209 26.9943 175.724 27.7372C175.239 28.48 174.545 29.0625 173.73 29.4109C172.914 29.7593 172.013 29.858 171.141 29.6945C170.27 29.531 169.466 29.1127 168.832 28.4924C168.198 27.8722 167.762 27.0778 167.579 26.2097C167.396 25.3417 167.475 24.4389 167.805 23.6156C168.135 22.7923 168.702 22.0853 169.434 21.5842C169.92 21.2505 170.467 21.016 171.044 20.8942C171.621 20.7724 172.216 20.7656 172.795 20.8743C173.374 20.9829 173.927 21.2049 174.42 21.5274C174.914 21.8499 175.339 22.2666 175.671 22.7537L-nan -nanZ" fill="#FBFFFF"/>
<path opacity="0.29" d="M-nan -nanL43.5953 13.735C44.4981 15.0451 44.9917 16.5937 45.0135 18.1846C45.0354 19.7756 44.5846 21.3372 43.7182 22.6716C42.8518 24.006 41.6088 25.0532 40.1468 25.6804C38.6847 26.3076 37.0694 26.4867 35.5055 26.1949C33.9416 25.9031 32.4995 25.1535 31.362 24.0412C30.2244 22.929 29.4426 21.504 29.1156 19.9469C28.7886 18.3898 28.9311 16.7707 29.5251 15.2947C30.1191 13.8186 31.1378 12.5522 32.4522 11.6558C34.2072 10.4589 36.3647 10.0057 38.4528 10.3953C40.541 10.7849 42.39 11.9857 43.5953 13.735L-nan -nanL-nan -nanZ" stroke="#FBFFFF" stroke-width="1.13" stroke-miterlimit="10"/>
<path d="M127.99 1H49.5514C42.9552 1 37.6079 6.34795 37.6079 12.945V211.43C37.6079 218.027 42.9552 223.375 49.5514 223.375H127.99C134.586 223.375 139.933 218.027 139.933 211.43V12.945C139.933 6.34795 134.586 1 127.99 1Z" fill="white" stroke="#1D1D1B" stroke-miterlimit="10"/>
<path d="M127.185 6.30713H50.3573C46.0689 6.30713 42.5924 9.78399 42.5924 14.0729V193.648C42.5924 197.937 46.0689 201.414 50.3573 201.414H127.185C131.473 201.414 134.949 197.937 134.949 193.648V14.0729C134.949 9.78399 131.473 6.30713 127.185 6.30713Z" fill="#F0EFED"/>
<path d="M-nan -nanL101.11 215.069H76.4325C75.4823 215.069 74.5709 214.692 73.8986 214.02C73.2262 213.349 72.8477 212.438 72.8464 211.487L-nan -nanL72.8464 211.487C72.8464 210.536 73.2242 209.624 73.8967 208.951C74.5693 208.279 75.4814 207.901 76.4325 207.901H101.11C102.061 207.901 102.973 208.279 103.645 208.951C104.318 209.624 104.696 210.536 104.696 211.487L-nan -nanL104.696 211.487C104.694 212.438 104.316 213.349 103.644 214.02C102.971 214.692 102.06 215.069 101.11 215.069L-nan -nanZ" fill="#F0EFED"/>
<path d="M63.4489 222.746C81.1563 226.988 99.4614 225.298 117.413 222.866C118.453 222.73 119.554 222.523 120.199 221.571C120.765 220.729 120.781 219.549 120.76 218.453C120.677 214.357 120.464 210.271 120.24 206.18L116.264 130.752C116.005 125.778 115.703 120.642 113.78 116.198C111.363 110.625 106.052 107.595 101.826 103.754C98.3751 100.599 91.92 100.677 86.6551 100.354C83.6458 100.172 78.5628 101.503 75.6731 102.522C71.3333 104.081 69.192 108.702 66.9675 113.396C64.9509 117.653 63.8023 122.409 62.742 127.134C59.2598 142.603 56.4584 158.385 55.9439 174.389C55.4293 190.394 57.2744 206.689 62.7524 221.317" fill="#53BBD3"/>
<path d="M72.3835 315.65C67.7059 317.604 61.9888 311.923 55.726 311.268C54.9516 311.185 54.3591 310.363 54.3695 309.386C55.0243 247.353 52.2126 189.588 54.8268 127.623C54.9879 123.74 56.2457 120.938 57.4879 117.367C59.3614 111.99 62.1102 108.612 65.5649 106.428C70.9529 103.021 76.81 108.736 76.5804 115.106C74.4668 173.733 93.9199 178.135 92.2478 244.682C92.2218 246.605 73.844 315.036 72.3835 315.65Z" fill="#FBFFFF"/>
<path d="M102.965 315.676C107.564 317.687 118.557 316.3 124.794 315.723C125.568 315.65 126.166 314.839 126.171 313.856C126.316 251.824 124.664 189.884 122.86 127.888C122.746 124.005 121.53 121.188 120.339 117.601C118.558 112.236 115.892 108.838 112.516 106.611C107.184 103.093 101.189 108.746 101.118 115.133C101.06 120.354 100.815 125.238 100.673 130.128C99.2278 180.071 85.33 205.499 86.0681 266.087C86.0836 268.031 101.515 315.042 102.965 315.676Z" fill="#FBFFFF"/>
<path d="M90.7874 209.179C94.2436 184.712 97.5439 173.204 103.012 149.319C104.171 144.251 105.475 139.012 106.489 134.12C106.587 133.644 106.449 133.052 106.161 132.409C104.498 128.695 103.072 124.675 104.813 120.997C105.957 118.58 107.031 116.21 107.471 114.318C107.796 112.916 107.82 111.343 107.129 110.082C105.6 107.288 101.251 103.344 98.3755 101.95C98.1053 101.815 97.783 102.044 97.6791 102.47C95.8548 109.685 96.307 118.199 95.7561 125.705C93.3653 158.327 91.6709 174.264 90.5587 206.793" fill="#DCD9D8"/>
<path d="M90.7612 209.512C85.9849 185.269 81.2033 172.315 74.4831 148.758C73.0538 143.757 71.4738 138.596 70.2057 133.767C70.0804 133.291 70.1897 132.685 70.4469 132.019C71.9065 128.239 73.1013 124.165 71.1795 120.598C69.9024 118.227 68.6943 115.898 68.1529 114.025C67.7573 112.656 67.6473 111.103 68.2587 109.816C69.623 106.944 73.7533 102.758 76.5465 101.212C76.8115 101.066 77.139 101.274 77.2689 101.695C79.4726 108.801 79.483 117.331 80.4341 124.795C84.592 157.241 88.0534 173.62 90.9172 206.05" fill="#DCD9D8"/>
<path d="M118.437 166.312C121.769 180.346 125.818 198.591 130.147 212.35C130.189 212.553 130.253 212.749 130.337 212.935C130.648 213.62 131.325 214.111 132.075 214.16C132.253 214.172 132.432 214.165 132.611 214.138C133.234 214.108 133.856 214.058 134.476 213.989C138.907 213.497 141.548 209.172 141.067 204.739C138.665 182.595 133.807 161.617 129.601 139.495C128.354 132.93 125.963 127.919 121.623 121.11C119.835 118.311 124.241 121.555 120.642 120.852C118.805 120.494 116.946 121.702 116.946 123.573C116.946 123.812 116.914 124.049 116.851 124.279L113.98 134.794C113.683 135.883 113.572 137.014 113.652 138.139L113.926 141.973C113.94 142.172 113.96 142.369 113.987 142.566C114.244 144.439 115.739 154.946 118.437 166.312Z" fill="#DCD9D8"/>
<path d="M119.071 166.202C122.408 180.237 125.828 198.591 130.147 212.35C130.188 212.553 130.252 212.749 130.337 212.935C130.647 213.619 131.325 214.111 132.074 214.16C132.252 214.172 132.432 214.164 132.61 214.138C133.234 214.108 133.856 214.058 134.475 213.989C138.907 213.497 141.544 209.172 141.097 204.736C138.868 182.59 134.872 161.598 130.666 139.464C129.419 132.904 127.174 125.029 122.824 118.22C121.176 115.642 118.296 111.236 112.88 107.695C111.806 106.992 111.08 108.147 112.073 108.96C112.329 109.169 112.48 109.48 112.489 109.81L113.058 132.914L114.159 139.791C114.17 139.857 114.179 139.914 114.188 139.98C114.358 141.183 116.238 154.25 119.071 166.202Z" fill="#FBFFFF"/>
<path d="M56.9525 166.311C53.6158 180.346 49.567 198.591 45.2376 212.35C45.2049 212.52 45.1566 212.686 45.0938 212.845C44.7934 213.608 44.0464 214.158 43.2273 214.18C43.0817 214.183 42.9353 214.175 42.7897 214.154C42.1666 214.123 41.5452 214.074 40.9264 214.005C36.4941 213.512 33.8526 209.186 34.3345 204.753C36.7411 182.609 41.5977 161.632 45.7989 139.511C47.0515 132.946 49.4371 127.935 53.7769 121.125C55.5677 118.324 51.1494 121.578 54.7708 120.865C56.6007 120.505 58.4545 121.71 58.4545 123.575C58.4545 123.812 58.486 124.048 58.5482 124.277L61.4115 134.805C61.7075 135.893 61.8173 137.024 61.7361 138.149L61.459 141.988C61.4449 142.183 61.4251 142.378 61.3984 142.572C61.143 144.433 59.6482 154.938 56.9525 166.311Z" fill="#DCD9D8"/>
<path d="M56.3132 166.202C52.9765 180.237 49.5566 198.591 45.2376 212.35C45.2049 212.52 45.1566 212.686 45.0938 212.845C44.7934 213.608 44.0464 214.158 43.2273 214.18C43.0817 214.184 42.9353 214.175 42.7897 214.154C42.1666 214.124 41.5452 214.074 40.9264 214.005C36.4941 213.513 33.857 209.187 34.3043 204.75C36.5363 182.605 40.5278 161.614 44.7335 139.48C45.9808 132.92 48.2261 125.045 52.5763 118.235C54.2242 115.657 57.1043 111.251 62.5201 107.71C63.5942 107.008 64.3204 108.163 63.3272 108.976C63.0714 109.185 62.9196 109.495 62.9114 109.826L62.3421 132.93L61.2399 139.811C61.2298 139.874 61.2216 139.928 61.2126 139.991C61.0451 141.166 59.1546 154.235 56.3132 166.202Z" fill="#FBFFFF"/>
<path d="M55.9283 158.744C55.9319 158.733 55.9335 158.722 55.9332 158.71C55.8127 154.989 55.9518 151.264 56.3495 147.562C56.5574 145.753 56.8692 143.95 57.2175 142.167C57.3465 141.395 57.5201 140.631 57.7372 139.88C57.9808 139.163 58.2833 138.467 58.6415 137.801C58.9651 137.161 59.3609 136.561 59.8213 136.012C60.3303 135.458 60.9477 135.014 61.6352 134.708C62.3738 134.35 63.1969 134.204 64.0133 134.286C64.8298 134.368 65.6077 134.674 66.2609 135.17C67.5581 136.263 68.4528 137.758 68.8024 139.417C69.2426 141.299 69.5449 143.21 69.7067 145.135C70.2045 149.573 70.3626 154.042 70.1797 158.504C70.1797 158.837 70.6994 158.837 70.6994 158.504C70.8737 154.299 70.7434 150.086 70.3096 145.899C70.1383 143.912 69.8572 141.935 69.4676 139.979C69.1711 138.263 68.3985 136.665 67.238 135.368C66.6985 134.789 66.0298 134.346 65.2864 134.075C64.5429 133.804 63.746 133.713 62.9605 133.808C62.1833 133.929 61.4376 134.202 60.766 134.611C60.0944 135.021 59.5102 135.559 59.0469 136.194C58.1639 137.414 57.5072 138.782 57.1083 140.233C56.6555 142.036 56.3085 143.864 56.0688 145.707C55.4811 150.031 55.2586 154.397 55.4036 158.759C55.4036 158.828 55.431 158.894 55.4797 158.943C55.5284 158.991 55.5945 159.019 55.6635 159.019C55.7324 159.019 55.7985 158.991 55.8472 158.943C55.8922 158.898 55.919 158.838 55.9229 158.774C55.9235 158.764 55.925 158.754 55.9283 158.744Z" fill="#79838E"/>
<path d="M71.635 159.357C71.6287 159.604 71.549 159.845 71.406 160.047C71.263 160.25 71.0632 160.406 70.8317 160.494C70.6003 160.583 70.3477 160.601 70.1059 160.547C69.8641 160.492 69.644 160.366 69.4735 160.186C69.303 160.006 69.1897 159.78 69.1481 159.535C69.1064 159.291 69.1382 159.04 69.2394 158.813C69.3406 158.587 69.5067 158.396 69.7167 158.264C69.9266 158.132 70.171 158.066 70.4188 158.073C70.7497 158.084 71.0629 158.224 71.2906 158.465C71.5183 158.705 71.642 159.026 71.635 159.357Z" fill="#79838E"/>
<path d="M64.1909 120.752L63.8381 120.732C63.2191 120.697 62.6887 121.17 62.6534 121.789L62.2121 129.537C62.1769 130.156 62.6501 130.687 63.2691 130.722L63.622 130.742C64.241 130.777 64.7713 130.304 64.8066 129.685L65.2479 121.937C65.2831 121.318 64.8099 120.787 64.1909 120.752Z" fill="#79838E"/>
<path d="M56.9108 159.242C56.9045 159.49 56.8248 159.731 56.6818 159.933C56.5388 160.136 56.339 160.291 56.1075 160.38C55.8761 160.469 55.6235 160.487 55.3817 160.432C55.1399 160.378 54.9198 160.252 54.7493 160.072C54.5788 159.892 54.4656 159.666 54.4239 159.421C54.3822 159.177 54.414 158.926 54.5152 158.699C54.6164 158.473 54.7825 158.282 54.9925 158.15C55.2024 158.018 55.4468 157.951 55.6946 157.959C55.8589 157.963 56.0207 157.999 56.1709 158.066C56.321 158.133 56.4565 158.228 56.5695 158.348C56.6825 158.467 56.7708 158.607 56.8294 158.761C56.888 158.915 56.9156 159.078 56.9108 159.242Z" fill="#79838E"/>
<path d="M64.1612 133.85C64.1583 133.85 64.1559 133.848 64.1558 133.845C63.8337 123.45 63.7677 110.978 73.0227 104.144C75.1286 102.541 77.6355 101.55 80.2678 101.279C80.7875 101.233 80.7875 100.432 80.2678 100.479C75.4083 100.926 71.2816 103.852 68.423 107.699C65.0603 112.221 63.7766 117.809 63.3972 123.345C63.1581 126.843 63.262 130.352 63.3712 133.85C63.3712 134.368 64.1764 134.37 64.1665 133.855C64.1665 133.852 64.1641 133.85 64.1612 133.85Z" fill="#79838E"/>
<path d="M-nan -nanL117.366 142.396C117.366 143.077 117.164 143.744 116.786 144.31C116.407 144.877 115.869 145.319 115.239 145.58C114.61 145.84 113.917 145.909 113.248 145.776C112.58 145.643 111.966 145.314 111.484 144.833C111.002 144.351 110.674 143.736 110.541 143.068C110.408 142.399 110.476 141.707 110.737 141.077C110.998 140.447 111.439 139.909 112.006 139.53C112.573 139.151 113.239 138.949 113.921 138.949C114.834 138.949 115.711 139.312 116.357 139.959C117.003 140.605 117.366 141.482 117.366 142.396L-nan -nanZ" fill="#79838E"/>
<path d="M93.9991 101.144C93.9991 101.141 94.0016 101.139 94.0043 101.14C99.4176 101.708 103.901 105.585 106.577 110.142C109.695 115.46 110.865 121.728 111.883 127.727C112.528 131.49 113.021 135.273 113.364 139.074C113.411 139.594 114.212 139.594 114.165 139.074C113.616 132.214 112.5 125.41 110.828 118.734C109.331 113.068 106.821 107.455 102.102 103.754C99.7764 101.877 96.9672 100.696 93.9991 100.349C93.4812 100.297 93.4794 101.087 93.9938 101.149C93.9966 101.149 93.9991 101.147 93.9991 101.144Z" fill="#79838E"/>
<path opacity="0.75" d="M115.439 142.422C115.439 142.717 115.351 143.005 115.187 143.25C115.023 143.496 114.79 143.687 114.518 143.8C114.245 143.913 113.945 143.942 113.656 143.885C113.367 143.827 113.101 143.685 112.892 143.477C112.684 143.268 112.541 143.002 112.484 142.713C112.426 142.423 112.456 142.123 112.569 141.851C112.682 141.578 112.873 141.345 113.118 141.181C113.364 141.017 113.652 140.93 113.947 140.93C114.143 140.929 114.337 140.967 114.519 141.042C114.7 141.117 114.865 141.227 115.003 141.365C115.142 141.504 115.252 141.669 115.326 141.85C115.401 142.031 115.439 142.226 115.439 142.422Z" fill="#FBFFFF"/>
<path d="M91.988 111.681C93.4747 111.304 94.774 110.4 95.6441 109.137C96.5141 107.874 96.8956 106.337 96.7176 104.814C96.1511 100.032 95.6054 93.4252 95.6781 90.6651C95.7093 89.2824 95.7093 87.8946 95.6781 86.5067C95.6845 86.4056 95.6824 86.3046 95.6719 86.2046C95.6293 85.7991 95.4104 85.3708 95.0129 85.28C93.2094 84.7186 91.3747 85.9401 89.5869 86.3975C87.3676 86.9537 85.0652 86.3559 82.8303 86.803C82.6817 86.8165 82.5386 86.8662 82.4136 86.9478C82.1651 87.1098 82.0445 87.4084 82.0079 87.7028C81.9996 87.7698 81.9948 87.8372 81.9935 87.9049C81.4646 93.3466 80.6492 98.7565 79.5508 104.112C79.2354 105.613 79.4744 107.177 80.2236 108.515C80.9728 109.853 82.1813 110.874 83.6255 111.389L85.7876 112.154C86.9702 112.573 88.2508 112.633 89.4673 112.325L91.988 111.681Z" fill="#F7B094"/>
<path d="M-nan -nanL95.7405 84.3704C95.6184 84.1938 95.4317 84.0724 95.2208 84.0325C93.4173 83.4763 91.6138 84.6978 89.7947 85.1553C87.5754 85.7115 85.2782 85.1085 83.0382 85.5607C82.8893 85.5734 82.7458 85.6227 82.6207 85.7043C82.3719 85.8666 82.2522 86.1663 82.2157 86.461C82.2074 86.5278 82.2026 86.5951 82.2014 86.6627C82.1664 87.1019 82.1186 87.533 82.0631 87.9592C81.6411 91.1972 82.7467 94.6636 85.8524 95.6722C86.5227 95.8899 87.1922 96.0315 87.8405 96.0762C90.292 96.242 92.8302 95.1468 94.7058 92.9952C95.5533 92.023 95.8548 90.7178 95.8548 89.428C95.8548 88.0621 95.8851 86.7012 95.8563 85.3355C95.8554 85.2916 95.8582 85.2478 95.8623 85.2042C95.8893 84.9208 95.8477 84.6348 95.7405 84.3704L-nan -nanZ" fill="#E89C82"/>
<path d="M-nan -nanL96.7176 104.814C96.5883 103.718 96.4601 102.527 96.3397 101.309C96.1036 98.9182 93.6401 97.4496 91.3124 98.0431C89.8303 98.421 88.3202 98.6457 86.7906 98.6129C83.8457 98.5751 80.3332 100.097 79.7666 102.988C79.6924 103.366 79.6169 103.743 79.5403 104.118C79.2544 105.629 79.4951 107.193 80.2224 108.548C80.9497 109.904 82.1196 110.969 83.537 111.566L84.5038 111.961C85.3062 112.3 86.1568 112.51 87.0245 112.585C87.9241 112.652 88.8275 112.652 89.7271 112.585C90.0887 112.548 90.4467 112.482 90.7978 112.388L91.5878 112.169C92.0793 112.046 92.5565 111.872 93.0118 111.649C94.2749 111.051 95.3147 110.066 95.9809 108.837C96.6471 107.608 96.9051 106.199 96.7176 104.814L-nan -nanZ" fill="#5BC6D8"/>
<path d="M74.9666 88.6534C67.1134 86.5066 62.0771 77.5661 64.4419 70.0342C64.9617 68.3501 65.8244 66.7543 66.1675 65.0234C66.9886 60.865 64.8369 56.1868 66.9419 52.4598C69.2547 48.3534 75.1017 47.974 79.3272 45.7024C81.6088 44.4757 83.5214 42.5837 85.9746 41.7364C91.832 39.6572 97.8766 43.9195 102.559 47.896C105.257 50.1831 108.053 52.6054 109.347 55.8385C110.517 58.765 110.319 62.0189 110.906 65.1065C111.265 67.0142 111.92 68.8595 112.258 70.7723C112.686 73.342 112.539 75.9748 111.825 78.4803C111.111 80.9858 109.849 83.3013 108.131 85.2591C106.343 87.2349 104.158 88.8115 101.719 89.8863C99.2809 90.961 96.6433 91.5098 93.9785 91.4967" fill="#38303B"/>
<path d="M103.744 73.3247C103.744 85.3425 95.4546 95.0835 88.0639 95.0835C80.6733 95.0835 72.3887 85.3425 72.3887 73.3247C72.3887 61.307 76.9312 55.4332 88.5837 55.4332C99.3266 55.4332 103.744 61.3122 103.744 73.3247Z" fill="#F7B094"/>
<path d="M102.887 78.0081C104.82 77.4207 106.488 75.7418 106.65 73.725C106.811 71.7081 105.09 69.6289 103.079 69.7537" fill="#F7B094"/>
<path d="M73.7348 78.0081C71.8014 77.4207 70.1278 75.7418 69.9719 73.725C69.816 71.7081 71.5311 69.6289 73.5425 69.7537" fill="#F7B094"/>
<path d="M80.907 71.3754C80.907 72.5813 80.3872 73.5637 79.7116 73.5637C79.0359 73.5637 78.5162 72.5813 78.5162 71.3754C78.5162 70.1694 79.0359 69.1818 79.7116 69.1818C80.3872 69.1818 80.907 70.1642 80.907 71.3754Z" fill="#38303B"/>
<path d="M96.4367 71.261C96.4367 72.4722 95.917 73.4546 95.2414 73.4546C94.5657 73.4546 94.046 72.4722 94.046 71.261C94.046 70.0499 94.5657 69.0727 95.2414 69.0727C95.917 69.0727 96.4367 70.0551 96.4367 71.261Z" fill="#38303B"/>
<path d="M82.567 69.6498C82.5622 69.6498 82.5576 69.6485 82.5536 69.646C81.6826 69.1114 80.6699 68.8535 79.6492 68.9065C78.6772 68.8554 77.7146 69.1197 76.905 69.6602C76.7231 69.8109 76.983 70.0708 77.1649 69.9253C77.9371 69.4311 78.8497 69.203 79.7635 69.2755C80.6875 69.2415 81.6009 69.482 82.3882 69.9668C82.5782 70.1055 82.7631 69.7977 82.5821 69.6549C82.5778 69.6515 82.5724 69.6498 82.567 69.6498Z" fill="#38303B"/>
<path d="M92.739 70.0085C92.7406 70.0085 92.7421 70.008 92.7434 70.0072C93.5183 69.5136 94.4214 69.2591 95.3401 69.2756C96.2486 69.1918 97.1599 69.4032 97.9387 69.8785C98.1258 70.0241 98.3857 69.7642 98.1986 69.6186C97.3838 69.089 96.4187 68.839 95.4492 68.9065C94.4254 68.8686 93.4141 69.1423 92.5491 69.6914C92.3627 69.8312 92.5476 70.1514 92.7339 70.0102C92.7353 70.0091 92.7372 70.0085 92.739 70.0085Z" fill="#38303B"/>
<path d="M-nan -nanL86.9256 69.6913C86.6207 72.1551 86.3124 74.619 86.0005 77.0828L85.777 78.8709L85.6575 79.8274C85.5921 80.0977 85.5676 80.3763 85.5847 80.6538C85.6835 81.1736 86.2084 81.0853 86.593 81.0749L88.4641 81.0177C88.7967 81.0177 88.8019 80.4979 88.4641 80.4979L86.8425 80.5499C86.764 80.5499 86.5828 80.5781 86.4175 80.5823C86.1852 80.5884 86.0773 80.3694 86.1356 80.1444L86.1824 79.7598C86.3228 78.637 86.4683 77.5091 86.6086 76.3863C86.8858 74.1581 87.1647 71.9264 87.4454 69.6913C87.487 69.3638 86.9672 69.3638 86.9256 69.6913L-nan -nanZ" fill="#E89C82"/>
<path d="M83.677 64.8105C83.7966 64.878 83.677 65.0132 83.5107 65.034C83.3498 65.0416 83.189 65.0168 83.0378 64.9612C81.1082 64.4232 79.0683 64.4232 77.1388 64.9612C76.8578 65.0638 76.5639 65.1267 76.2656 65.1483C76.0196 65.1483 75.7579 65.0763 75.6457 64.9566C75.5865 64.8934 75.586 64.7941 75.6268 64.7177C75.6474 64.6792 75.6755 64.6454 75.7095 64.6181C76.0752 64.3 76.5148 64.0784 76.988 63.9736C78.7258 63.4915 80.5636 63.5041 82.2945 64.01C82.8503 64.1349 83.3545 64.427 83.7394 64.8469" fill="#38303B"/>
<path d="M91.2708 64.8103C91.1512 64.8779 91.2708 65.0131 91.4371 65.0338C91.5997 65.041 91.7621 65.0163 91.9152 64.9611C93.843 64.4232 95.8812 64.4232 97.809 64.9611C98.0917 65.0642 98.3873 65.1271 98.6874 65.1482C98.929 65.1482 99.1925 65.0764 99.3037 64.957C99.3628 64.8936 99.3619 64.794 99.321 64.7175C99.3004 64.6791 99.2723 64.6453 99.2383 64.618C98.8726 64.2999 98.433 64.0783 97.9598 63.9735C96.2238 63.4916 94.3877 63.5042 92.6585 64.0099C92.1012 64.1348 91.5954 64.4267 91.2084 64.8467" fill="#38303B"/>
<path d="M93.4429 84.121C91.312 87.4841 89.0512 88.5133 86.1095 87.6244C84.366 87.0925 85.6633 85.3662 87.4822 85.4871C89.5066 85.6217 91.5242 85.1252 93.4897 83.9131" fill="#E66E60"/>
<path d="M93.4518 84.1114C93.4459 84.1177 93.4393 84.1234 93.4322 84.1283C91.0696 85.765 88.2398 86.2765 84.4255 85.2644C83.5881 85.0928 83.9967 84.3314 84.8391 84.4765C87.6617 84.9629 90.5705 84.7737 93.323 83.9107C93.4419 83.8734 93.5364 84.0201 93.4518 84.1114Z" fill="white"/>
<path opacity="0.28" d="M78.194 83.9183C80.0999 83.9183 81.645 82.373 81.645 80.4668C81.645 78.5606 80.0999 77.0153 78.194 77.0153C76.288 77.0153 74.7429 78.5606 74.7429 80.4668C74.7429 82.373 76.288 83.9183 78.194 83.9183Z" fill="#E66E60"/>
<path opacity="0.28" d="M-nan -nanL93.6613 80.4668C93.6613 81.1494 93.8637 81.8167 94.2429 82.3843C94.6221 82.9519 95.1611 83.3943 95.7917 83.6555C96.4223 83.9167 97.1162 83.9851 97.7856 83.8519C98.455 83.7187 99.07 83.39 99.5526 82.9073C100.035 82.4246 100.364 81.8096 100.497 81.1401C100.63 80.4706 100.562 79.7766 100.301 79.146C100.039 78.5153 99.5972 77.9762 99.0296 77.597C98.4621 77.2177 97.7949 77.0153 97.1123 77.0153C96.1971 77.0153 95.3193 77.379 94.6721 78.0262C94.0249 78.6735 93.6613 79.5514 93.6613 80.4668L-nan -nanZ" fill="#E66E60"/>
<path d="M84.5923 44.7409C83.3865 45.4427 81.8273 44.9229 80.6527 44.1848C79.56 43.5726 78.6955 42.6222 78.1891 41.4766C77.7577 40.3175 78.0072 38.836 79.0207 38.1239C79.7535 37.6041 80.8242 37.4949 81.24 36.7049C81.6558 35.9148 81.0581 34.8544 80.9125 33.8979C80.8725 33.4574 80.9329 33.0135 81.0892 32.5996C81.2454 32.1858 81.4935 31.8127 81.8146 31.5085C82.1358 31.2043 82.5217 30.9769 82.9434 30.8434C83.1078 30.7913 83.2761 30.754 83.4461 30.7317C83.9778 30.662 84.5037 30.83 85.0272 30.9465C85.1742 30.9792 85.3221 31.0083 85.4706 31.0338C86.5621 31.1014 87.43 30.1658 88.4643 29.8175C89.8884 29.3393 91.4944 30.0618 92.4819 31.195C92.8452 31.6119 93.1431 32.0739 93.3986 32.5615C94.0075 33.7235 96.1799 34.6005 96.9464 35.6653C97.5077 36.445 97.5597 37.469 97.5961 38.4306C97.6324 39.3922 97.6896 40.411 98.2457 41.1959C98.5108 41.5754 98.911 41.9496 98.8486 42.407C98.7863 42.8645 98.3964 43.0776 98.0326 43.2699C95.762 44.4921 93.2842 45.2817 90.7251 45.5986" fill="#38303B"/>
<path d="M86.0213 54.0713C86.8113 56.3169 89.0358 57.7099 91.1043 58.8639C93.3902 60.1699 95.7641 61.4979 98.2291 62.4139C101.902 63.779 105.338 60.3467 103.307 56.9955C102.107 55.0166 100.343 53.4424 98.2403 52.4756C97.2008 52.0233 95.9067 51.5243 95.7248 50.3964" fill="#38303B"/>
<path d="M70.9125 64.5972C77.5755 64.5505 83.6668 60.3453 87.596 54.9654C87.8733 54.6596 88.0806 54.3012 88.2081 53.9151C88.3869 53.3732 88.3593 52.7637 88.0801 52.266C87.9667 52.064 87.8232 51.8786 87.6532 51.7166C86.1979 50.1572 83.8591 49.6634 81.7593 50.0169C79.6596 50.3704 77.7626 51.4671 76.0422 52.6991" fill="#38303B"/>
<path d="M99.6478 75.043C101.809 72.8811 101.809 69.376 99.6478 67.2141C97.4861 65.0522 93.9814 65.0522 91.8198 67.2141C89.6582 69.376 89.6582 72.8811 91.8198 75.043C93.9815 77.2049 97.4861 77.2049 99.6478 75.043Z" stroke="#38303B" stroke-width="0.71" stroke-miterlimit="10"/>
<path d="M83.7617 75.0463C85.9233 72.8844 85.9233 69.3793 83.7617 67.2174C81.6001 65.0555 78.0954 65.0555 75.9337 67.2174C73.7721 69.3793 73.7721 72.8844 75.9337 75.0463C78.0954 77.2082 81.6001 77.2082 83.7617 75.0463Z" stroke="#38303B" stroke-width="0.71" stroke-miterlimit="10"/>
<path d="M85.5224 71.2768C85.8339 70.9875 86.2005 70.764 86.6003 70.6196C87 70.4751 87.4248 70.4127 87.8492 70.4359C88.2736 70.4592 88.689 70.5678 89.0706 70.7551C89.4521 70.9424 89.7921 71.2047 90.0701 71.5263C90.2208 71.7134 90.4807 71.4483 90.33 71.2664C90.0176 70.9109 89.6371 70.6218 89.2109 70.4162C88.7847 70.2105 88.3216 70.0926 87.849 70.0693C87.3764 70.0461 86.904 70.1179 86.4597 70.2807C86.0154 70.4435 85.6083 70.6938 85.2625 71.0169C85.091 71.178 85.3509 71.4379 85.5224 71.2768Z" fill="#38303B"/>
<path d="M101.457 70.8661L104.025 69.5718C104.238 69.4678 104.025 69.1508 103.838 69.2547L101.27 70.549C101.062 70.6582 101.27 70.9753 101.457 70.8661Z" fill="#38303B"/>
<path d="M-nan -nanL74.4051 70.705L72.0455 69.078C71.8532 68.9428 71.6661 69.2651 71.8636 69.4002L74.218 71.0272C74.4155 71.1624 74.5974 70.8401 74.4051 70.705L-nan -nanZ" fill="#38303B"/>
<path d="M-nan -nanL35.4409 55.7245C39.6625 55.4556 43.8587 56.5519 47.4094 58.8514C50.9601 61.151 53.677 64.5319 55.1588 68.4945C56.6405 72.4572 56.8085 76.7914 55.6378 80.8569C54.4976 84.8165 52.1464 88.3167 48.9184 90.8684C48.7479 91.0031 48.6209 91.1924 48.4429 91.317C48.3523 91.3804 48.2477 91.4208 48.138 91.4347L-nan -nanL48.138 91.4347L51.1629 101.779C51.1973 101.91 51.1864 102.05 51.1321 102.175C51.0779 102.3 50.9832 102.403 50.8634 102.467C50.7437 102.532 50.6056 102.555 50.4714 102.532C50.3373 102.509 50.2147 102.441 50.1234 102.34L44.2134 96.9679C42.5265 95.4346 40.1849 94.9364 37.9096 95.0785C35.3178 95.2554 32.7165 94.9182 30.2553 94.0863C27.7942 93.2543 25.5217 91.9441 23.5686 90.2309C21.6154 88.5176 20.0202 86.4352 18.8744 84.1033C17.7287 81.7714 17.0552 79.236 16.8925 76.6428C16.7298 74.0497 17.0812 71.45 17.9266 68.9931C18.7719 66.5363 20.0944 64.2708 21.8181 62.3268C23.5418 60.3829 25.6327 58.7988 27.9706 57.6658C30.3085 56.5327 32.8472 55.873 35.4409 55.7245L-nan -nanZ" fill="white"/>
<path d="M47.4094 58.8514C43.8587 56.5519 39.6625 55.4556 35.4409 55.7245L-nan -nanL-nan -nanL35.4409 55.7245C32.8472 55.873 30.3085 56.5327 27.9706 57.6658C25.6327 58.7988 23.5418 60.3829 21.8181 62.3268C20.0944 64.2708 18.7719 66.5363 17.9266 68.9931C17.0812 71.45 16.7298 74.0497 16.8925 76.6428C17.0552 79.236 17.7287 81.7714 18.8744 84.1033C20.0202 86.4352 21.6154 88.5176 23.5686 90.2309C25.5217 91.9441 27.7942 93.2543 30.2553 94.0863C32.7165 94.9182 35.3178 95.2554 37.9096 95.0785V95.0785C40.1849 94.9364 42.5265 95.4346 44.2134 96.9679L50.1234 102.34C50.2147 102.441 50.3373 102.509 50.4714 102.532C50.6056 102.555 50.7437 102.532 50.8634 102.467C50.9832 102.403 51.0778 102.3 51.1321 102.175C51.1864 102.05 51.1973 101.91 51.1629 101.779L48.138 91.4347L-nan -nanL-nan -nanL48.138 91.4347C48.2477 91.4208 48.3523 91.3804 48.4429 91.317V91.317C48.6209 91.1924 48.7479 91.0031 48.9184 90.8684C52.1464 88.3166 54.4976 84.8165 55.6378 80.8569C56.8085 76.7914 56.6405 72.4572 55.1588 68.4945C53.677 64.5319 50.9601 61.151 47.4094 58.8514Z" stroke="#1D1D1B" stroke-miterlimit="10"/>
<path opacity="0.38" d="M46.2767 79.9265C48.9334 74.6111 46.7787 68.1482 41.464 65.4911C36.1493 62.834 29.6871 64.9889 27.0304 70.3043C24.3736 75.6196 26.5283 82.0826 31.843 84.7397C37.1577 87.3968 43.6199 85.2418 46.2767 79.9265Z" fill="#53BBD3"/>
<path d="M42.4444 75.361C42.4487 74.8362 42.0272 74.4071 41.5024 74.402L40.0314 74.3878C38.696 74.3749 37.624 73.2819 37.6369 71.9465L37.6511 70.4776C37.6561 69.9517 37.2336 69.5216 36.7078 69.5172C36.183 69.5129 35.7539 69.9344 35.7489 70.4592L35.7346 71.9312C35.7217 73.2664 34.6289 74.3383 33.2937 74.3254L31.8246 74.3112C31.299 74.3061 30.869 74.7285 30.8647 75.2541C30.8604 75.7791 31.2824 76.2081 31.8073 76.2126L33.2745 76.2252C34.6113 76.2367 35.6852 77.3304 35.6723 78.6672L35.6581 80.1381C35.653 80.6639 36.0756 81.0941 36.6014 81.0984C37.1261 81.1027 37.5552 80.6812 37.5603 80.1565L37.5745 78.6844C37.5874 77.3492 38.6803 76.2773 40.0155 76.2902L41.484 76.3044C42.0099 76.3095 42.4401 75.8869 42.4444 75.361Z" fill="#53BBD3"/>
<path d="M138.665 12.6955C133.317 12.6958 128.111 14.4149 123.814 17.5992C119.518 20.7835 116.358 25.2644 114.8 30.3813C113.243 35.4981 113.371 40.9799 115.166 46.0184C116.915 50.9297 120.158 55.1663 124.434 58.1369C124.652 58.2887 124.82 58.5114 125.044 58.6553C125.158 58.7285 125.288 58.7734 125.423 58.7861C125.438 58.7861 125.45 58.8009 125.447 58.8165L122.45 72.0825C122.427 72.2439 122.457 72.4081 122.534 72.5515C122.611 72.695 122.732 72.8102 122.879 72.8807C123.025 72.9512 123.191 72.9733 123.351 72.9439C123.511 72.9144 123.658 72.8348 123.77 72.7167L130.303 66.0082C132.651 63.5963 136.065 62.6739 139.431 62.5877C141.098 62.545 142.762 62.3351 144.396 61.9584C147.789 61.1762 150.98 59.6925 153.765 57.6027C156.55 55.5129 158.866 52.8632 160.566 49.8241C162.265 46.785 163.31 43.4238 163.632 39.9567C163.955 36.4896 163.548 32.9934 162.438 29.6929C161.329 26.3924 159.541 23.3608 157.189 20.7931C154.837 18.2254 151.974 16.1783 148.784 14.7837C145.594 13.3891 142.147 12.6778 138.665 12.6955Z" fill="white" stroke="#1D1D1B" stroke-miterlimit="10"/>
<path opacity="0.38" d="M154.574 28.7038L139.631 20.1064C138.665 19.551 137.433 19.8834 136.877 20.8489L123.593 43.945C123.037 44.9105 123.37 46.1434 124.335 46.6988L139.279 55.2962C140.244 55.8516 141.477 55.5192 142.032 54.5537L155.317 31.4576C155.872 30.4921 155.54 29.2592 154.574 28.7038Z" fill="#53BBD3"/>
<path d="M146.586 28.4557C146.722 28.7967 146.753 29.1702 146.676 29.5289C146.599 29.8877 146.418 30.2156 146.154 30.4712C145.891 30.7268 145.558 30.8986 145.197 30.965C144.837 31.0314 144.464 30.9893 144.127 30.844C143.79 30.6988 143.504 30.457 143.305 30.1491C143.105 29.8412 143.001 29.481 143.006 29.1142C143.012 28.7473 143.125 28.3902 143.333 28.0879C143.541 27.7857 143.834 27.5519 144.175 27.4161C144.401 27.3258 144.644 27.281 144.888 27.2844C145.131 27.2878 145.372 27.3392 145.596 27.4358C145.82 27.5324 146.023 27.6721 146.193 27.8471C146.363 28.0221 146.497 28.2289 146.586 28.4557Z" fill="#53BBD3"/>
<path d="M135.906 33.425C136.93 33.425 137.761 32.5942 137.761 31.5694C137.761 30.5445 136.93 29.7137 135.906 29.7137C134.881 29.7137 134.05 30.5445 134.05 31.5694C134.05 32.5942 134.881 33.425 135.906 33.425Z" fill="#53BBD3"/>
<path d="M147.047 39.7442C148.071 39.7178 148.88 38.8658 148.854 37.8412C148.827 36.8167 147.975 36.0076 146.951 36.0341C145.926 36.0606 145.117 36.9126 145.144 37.9371C145.17 38.9616 146.022 39.7707 147.047 39.7442Z" fill="#53BBD3"/>
<path d="M-nan -nanL140.24 39.6002C140.375 39.9413 140.407 40.3148 140.33 40.6735C140.253 41.0323 140.071 41.3602 139.808 41.6158C139.545 41.8714 139.212 42.0432 138.851 42.1096C138.49 42.1759 138.118 42.1338 137.781 41.9886C137.444 41.8434 137.158 41.6015 136.958 41.2936C136.759 40.9857 136.655 40.6256 136.66 40.2587C136.665 39.8919 136.779 39.5348 136.987 39.2325C137.195 38.9303 137.488 38.6965 137.829 38.5606C138.055 38.4696 138.297 38.4243 138.541 38.4274C138.785 38.4304 139.027 38.4818 139.251 38.5784C139.475 38.675 139.678 38.8151 139.848 38.9904C140.017 39.1658 140.151 39.3731 140.24 39.6002L-nan -nanZ" fill="#53BBD3"/>
<path d="M129.643 44.4239C130.667 44.4239 131.498 43.5931 131.498 42.5683C131.498 41.5434 130.667 40.7126 129.643 40.7126C128.618 40.7126 127.787 41.5434 127.787 42.5683C127.787 43.5931 128.618 44.4239 129.643 44.4239Z" fill="#53BBD3"/>
<g opacity="0.69">
<path opacity="0.69" d="M140.859 25.1967C140.994 25.5377 141.025 25.9112 140.948 26.27C140.871 26.6287 140.69 26.9566 140.427 27.2122C140.164 27.4678 139.831 27.6396 139.47 27.706C139.109 27.7724 138.737 27.7303 138.4 27.5851C138.063 27.4398 137.776 27.198 137.577 26.8901C137.377 26.5822 137.274 26.222 137.279 25.8552C137.284 25.4883 137.398 25.1312 137.606 24.829C137.814 24.5267 138.106 24.2929 138.447 24.1571C138.674 24.0668 138.916 24.0221 139.16 24.0254C139.404 24.0288 139.645 24.0803 139.869 24.1768C140.093 24.2734 140.295 24.4132 140.465 24.5882C140.635 24.7632 140.769 24.9699 140.859 25.1967Z" fill="#FBFFFF"/>
<path opacity="0.69" d="M150.302 34.0766C151.326 34.0388 152.125 33.178 152.088 32.1538C152.05 31.1296 151.189 30.33 150.165 30.3677C149.141 30.4054 148.341 31.2663 148.379 32.2905C148.417 33.3146 149.278 34.1143 150.302 34.0766Z" fill="#FBFFFF"/>
<path opacity="0.69" d="M143.475 35.0119C143.578 33.9922 142.835 33.0823 141.815 32.9796C140.796 32.8769 139.886 33.6203 139.783 34.64C139.68 35.6597 140.424 36.5696 141.443 36.6723C142.463 36.775 143.373 36.0316 143.475 35.0119Z" fill="#FBFFFF"/>
<path opacity="0.69" d="M132.864 38.8759C133.888 38.8393 134.688 37.9793 134.652 36.9551C134.615 35.9309 133.755 35.1303 132.731 35.167C131.707 35.2036 130.906 36.0636 130.943 37.0878C130.98 38.112 131.84 38.9126 132.864 38.8759Z" fill="#FBFFFF"/>
<path opacity="0.69" d="M143.889 45.2038C144.913 45.2038 145.744 44.373 145.744 43.3481C145.744 42.3233 144.913 41.4924 143.889 41.4924C142.864 41.4924 142.033 42.3233 142.033 43.3481C142.033 44.373 142.864 45.2038 143.889 45.2038Z" fill="#FBFFFF"/>
<path opacity="0.69" d="M136.982 45.3233C137.117 45.6643 137.148 46.0378 137.071 46.3965C136.994 46.7553 136.813 47.0832 136.55 47.3388C136.286 47.5944 135.953 47.7662 135.593 47.8326C135.232 47.899 134.859 47.8569 134.522 47.7116C134.186 47.5664 133.899 47.3246 133.7 47.0167C133.5 46.7088 133.397 46.3486 133.402 45.9818C133.407 45.6149 133.52 45.2578 133.728 44.9555C133.936 44.6533 134.229 44.4195 134.57 44.2837C134.797 44.1927 135.039 44.1474 135.283 44.1504C135.527 44.1535 135.768 44.2048 135.992 44.3014C136.216 44.398 136.419 44.5381 136.589 44.7135C136.759 44.8888 136.892 45.0961 136.982 45.3233Z" fill="#FBFFFF"/>
<path opacity="0.69" d="M142.466 49.2572C142.569 48.2375 141.825 47.3277 140.806 47.225C139.786 47.1223 138.877 47.8657 138.774 48.8854C138.671 49.9051 139.415 50.815 140.434 50.9177C141.454 51.0203 142.363 50.2769 142.466 49.2572Z" fill="#FBFFFF"/>
</g>
</svg>
