<svg width="13" height="13" viewBox="0 0 13 13" fill="none" xmlns="http://www.w3.org/2000/svg">
<path d="M13 8.79785C13 6.90298 11.7232 5.24743 9.92278 4.74854C9.80961 2.11099 7.62879 0 4.96387 0C2.22674 0 0 2.22674 0 4.96387C0 5.85591 0.237442 6.72445 0.688324 7.48696L0.0182495 9.90939L2.44077 9.23941C3.14169 9.65389 3.93237 9.88737 4.74844 9.92258C5.24723 11.7231 6.90288 13 8.79785 13C9.55421 13 10.2897 12.7986 10.936 12.4158L12.9817 12.9817L12.4158 10.936C12.7986 10.2897 13 9.55421 13 8.79785ZM2.56098 8.4158L1.11074 8.81699L1.51193 7.36675L1.42049 7.22373C0.98954 6.54949 0.761719 5.76804 0.761719 4.96387C0.761719 2.64677 2.64677 0.761719 4.96387 0.761719C7.28096 0.761719 9.16602 2.64677 9.16602 4.96387C9.16602 7.28096 7.28096 9.16602 4.96387 9.16602C4.1597 9.16602 3.37834 8.93819 2.704 8.50725L2.56098 8.4158ZM11.8893 11.8893L10.8131 11.5915L10.6694 11.685C10.1123 12.047 9.46505 12.2383 8.79785 12.2383C7.30853 12.2383 5.99982 11.2753 5.53615 9.89451C7.81674 9.63158 9.63158 7.81674 9.89461 5.53605C11.2753 5.99982 12.2383 7.30853 12.2383 8.79785C12.2383 9.46505 12.047 10.1123 11.685 10.6694L11.5915 10.8131L11.8893 11.8893Z" fill="#56CCF2"/>
</svg>
