<svg width="171" height="45" viewBox="0 0 171 45" fill="none" xmlns="http://www.w3.org/2000/svg">
<g clip-path="url(#clip0_3852_69)">
<path d="M32.8088 36.9887V41.623C32.8088 42.5187 32.4576 43.3776 31.8325 44.0109C31.2074 44.6442 30.3596 45 29.4755 45H15.8046C14.9205 45 14.0727 44.6442 13.4475 44.0109C12.8224 43.3776 12.4712 42.5187 12.4712 41.623V36.2901C12.4712 35.8466 12.385 35.4075 12.2175 34.9977C12.05 34.588 11.8045 34.2157 11.4949 33.9022C11.1854 33.5886 10.8179 33.3398 10.4135 33.1701C10.0091 33.0004 9.57565 32.9131 9.13791 32.9131H3.33333C2.44927 32.9131 1.60143 32.5573 0.976309 31.924C0.351189 31.2906 0 30.4317 0 29.5361L0 16.0845C0 15.1888 0.351189 14.3299 0.976309 13.6966C1.60143 13.0632 2.44927 12.7075 3.33333 12.7075H8.62067C8.75388 12.7082 8.8852 12.7395 9.00472 12.7991C9.12423 12.8587 9.22883 12.945 9.31063 13.0516C9.39243 13.1581 9.44929 13.282 9.47692 13.4141C9.50456 13.5461 9.50225 13.6827 9.47017 13.8137C9.30314 14.5506 9.48992 17.2053 10.176 19.2722C10.862 21.3392 12.5682 24.3668 13.5452 25.7606C14.5222 27.1543 17.2665 29.9454 18.9511 31.3628C20.6357 32.7802 23.5686 34.4178 24.982 35.0291C26.3954 35.6405 28.7032 36.1208 30.492 36.23C30.9013 36.2584 31.3123 36.2203 31.7097 36.1172C31.8403 36.0839 31.9767 36.0813 32.1084 36.1096C32.2402 36.1379 32.3638 36.1963 32.4698 36.2804C32.5759 36.3645 32.6616 36.472 32.7203 36.5948C32.7791 36.7176 32.8093 36.8523 32.8088 36.9887Z" fill="#56CCF2"/>
<path d="M45.2711 16.0117V29.3305C45.2711 30.2261 44.9199 31.0851 44.2948 31.7184C43.6697 32.3517 42.8219 32.7075 41.9378 32.7075H36.8516C36.7124 32.7074 36.5751 32.674 36.451 32.61C36.327 32.5459 36.2196 32.4531 36.1377 32.3391C36.0557 32.225 36.0015 32.093 35.9795 31.9537C35.9576 31.8144 35.9684 31.6718 36.0111 31.5375C36.1027 31.2752 36.163 31.0028 36.1907 30.726C36.2536 29.7981 35.0269 28.7027 32.9885 26.976C30.95 25.2493 29.0948 24.7344 28.7805 24.7126C28.4662 24.6907 27.2414 25.1129 26.8049 26.3501C26.5409 27.0998 25.9375 27.8421 25.4993 28.3115C25.3626 28.4604 25.1799 28.5575 24.9814 28.587C24.7829 28.6164 24.5804 28.5764 24.4073 28.4735C23.3746 27.8567 21.2248 26.5011 19.9641 25.1984C18.7338 23.9247 17.5682 21.9651 17.0133 20.9735C16.9093 20.7883 16.874 20.5716 16.9139 20.3624C16.9537 20.1532 17.0661 19.9653 17.2306 19.8326C17.6042 19.5397 18.1052 19.2122 18.8613 18.71C20.0664 17.9094 20.5029 17.531 20.7112 16.7504C20.9195 15.9698 19.9928 14.3286 18.5075 12.3072C17.0223 10.2857 15.625 9.35412 14.8689 9.12304C14.5492 9.02479 14.1415 9.10303 13.6836 9.30499C13.5494 9.36215 13.4035 9.38472 13.2586 9.37071C13.1138 9.35669 12.9747 9.30652 12.8537 9.22468C12.7327 9.14283 12.6336 9.03188 12.5653 8.90174C12.497 8.77159 12.4616 8.62633 12.4623 8.47894V3.38432C12.4613 2.93947 12.5472 2.49881 12.7148 2.08766C12.8825 1.67651 13.1287 1.30296 13.4392 0.98849C13.7498 0.674015 14.1186 0.424806 14.5246 0.255177C14.9305 0.0855483 15.3655 -0.00115666 15.8046 4.27941e-05H29.3768C30.2608 4.27941e-05 31.1087 0.355833 31.7338 0.989143C32.3589 1.62245 32.7101 2.48141 32.7101 3.37704V9.24859C32.7101 10.1442 33.0613 11.0032 33.6864 11.6365C34.3115 12.2698 35.1594 12.6256 36.0434 12.6256H41.9468C42.3845 12.6268 42.8178 12.7153 43.2217 12.8861C43.6257 13.0569 43.9925 13.3067 44.3012 13.6211C44.6099 13.9355 44.8544 14.3085 45.0208 14.7187C45.1873 15.1288 45.2723 15.5682 45.2711 16.0117Z" fill="#56CCF2"/>
<path d="M50.2567 32.6437C50.2567 32.2301 50.8488 30.6878 52.0329 28.0167C53.2171 25.3457 54.5892 22.2823 56.1493 18.8264C57.7058 15.3694 58.7661 12.8997 59.33 11.4174L60.0394 9.5524C59.7086 9.04719 59.3296 8.57611 58.9079 8.14592C59.5139 7.89764 60.1599 7.76501 60.8135 7.75473C62.17 7.75473 63.2243 8.62688 63.9762 10.3712C64.4551 11.4823 65.0903 13.9689 65.8817 17.8312C65.9264 17.9699 65.9588 18.1124 65.9787 18.2569C66.0218 18.4995 66.2421 19.6058 66.6396 21.5757C67.0371 23.5456 67.3119 24.8544 67.464 25.5022C67.6136 26.1451 67.8716 27.1312 68.238 28.4607C68.8199 30.7084 69.5515 32.4533 70.4327 33.6954C69.4222 34.3019 68.5882 34.6052 67.9309 34.6052C67.2736 34.6052 66.8 34.4032 66.5103 33.9993C66.2217 33.5978 65.9529 32.9767 65.7039 32.1361C65.4549 31.2955 64.9328 28.9568 64.1378 25.1201C63.6589 25.86 62.7118 26.2524 61.2966 26.2973L55.5495 26.5266C54.321 29.8829 53.4278 32.7608 52.8699 35.1601C51.129 34.4214 50.2579 33.5826 50.2567 32.6437ZM61.1691 12.4636C58.6942 18.417 57.1126 22.2877 56.4241 24.0757H63.9133C62.9028 19.0818 61.988 15.2111 61.1691 12.4636Z" fill="#504F4F"/>
<path d="M72.34 31.6958C72.3184 31.3476 72.3077 30.786 72.3077 30.0109C72.3077 29.2358 72.6669 25.9273 73.3852 20.0855C74.1036 14.2413 74.4628 10.2286 74.4628 8.04767C74.4628 5.86669 74.3365 4.4499 74.0839 3.7973C75.2884 4.2546 76.1385 4.92964 76.6342 5.82241C77.1299 6.71518 77.3771 7.79475 77.3759 9.06113C77.3759 10.3251 77.064 13.5959 76.4402 18.8737C75.8164 24.1515 75.5039 28.4031 75.5027 31.6285C75.5027 32.3271 75.5458 33.3085 75.632 34.5724C74.4479 34.4851 73.6097 34.2018 73.1177 33.7227C72.707 33.3309 72.4478 32.6553 72.34 31.6958Z" fill="#504F4F"/>
<path d="M80.4435 31.6958C80.4219 31.3476 80.4112 30.786 80.4112 30.0109C80.4112 29.2358 80.7704 25.9273 81.4887 20.0855C82.2071 14.2413 82.5663 10.2286 82.5663 8.04767C82.5663 5.86669 82.4376 4.4499 82.1802 3.7973C83.3847 4.25339 84.2348 4.92903 84.7305 5.82423C85.2261 6.71943 85.4788 7.799 85.4884 9.06295C85.4884 10.3269 85.1765 13.5978 84.5527 18.8755C83.9289 24.1533 83.6164 28.4049 83.6152 31.6303C83.6152 32.329 83.6583 33.3103 83.7445 34.5742C82.5603 34.4869 81.7222 34.2037 81.2301 33.7245C80.8123 33.3315 80.5501 32.6553 80.4435 31.6958Z" fill="#504F4F"/>
<path d="M94.5024 16.9214C95.8901 15.8419 97.2999 15.3021 98.7319 15.3021C100.164 15.3021 101.353 15.9401 102.3 17.2162C103.246 18.4923 103.72 20.2202 103.721 22.4C103.744 24.6984 103.284 26.9754 102.371 29.0794C101.358 31.3477 99.8939 32.9288 97.9794 33.8228C96.907 34.3313 95.7348 34.587 94.5509 34.5706C92.8088 34.5706 91.281 33.8349 89.9675 32.3636C88.6541 30.8922 87.9956 28.7876 87.992 26.0499C87.992 23.3133 88.5733 20.9419 89.7359 18.9356C90.8985 16.9293 92.4801 15.5344 94.4808 14.7508C94.9119 14.7508 95.1274 14.9691 95.1274 15.4058C92.9973 16.8226 91.6845 19.0466 91.1888 22.0779C92.0102 19.7247 93.1147 18.0059 94.5024 16.9214ZM100.557 23.3315C100.557 21.2064 100.293 19.6804 99.7646 18.7537C99.2366 17.8269 98.4834 17.3636 97.5052 17.3636C96.527 17.3636 95.5422 17.8488 94.5509 18.8192C93.5315 19.8384 92.7359 21.0642 92.2161 22.4163C91.6486 23.8289 91.3583 25.3399 91.3612 26.865C91.3612 28.4019 91.6516 29.732 92.2323 30.8552C92.813 31.9784 93.6954 32.5394 94.8795 32.5382C96.5558 32.5382 97.9225 31.5357 98.9797 29.5306C100.005 27.6313 100.546 25.5034 100.557 23.3388V23.3315Z" fill="#504F4F"/>
<path d="M117.214 7.85294C120.185 7.85294 122.52 9.04108 124.218 11.4174C125.917 13.7936 126.768 16.7806 126.771 20.3784C126.771 24.0429 125.791 27.2701 123.832 30.06C122.85 31.4643 121.535 32.5951 120.007 33.3478C118.469 34.1479 116.765 34.5669 115.036 34.5706C113.511 34.5979 111.99 34.4142 110.515 34.0247C109.214 33.6608 108.272 33.2902 107.69 32.913L106.792 32.3671C106.814 32.1925 107.053 30.5676 107.511 27.4927C108.458 21.0832 108.931 15.2723 108.929 10.06C108.929 8.33633 108.779 7.11544 108.479 6.39734C110.264 7.00384 111.383 7.96333 111.835 9.2758C113.744 8.32601 115.537 7.85173 117.214 7.85294ZM110.531 31.794C111.649 32.1468 112.816 32.3128 113.987 32.2853C115.368 32.2785 116.724 31.912 117.925 31.2208C119.161 30.5432 120.214 29.5693 120.993 28.3842C122.582 26.0153 123.416 23.2097 123.383 20.3457C123.383 17.3605 122.725 14.9514 121.408 13.1186C120.091 11.2857 118.327 10.3699 116.117 10.3711C114.632 10.3711 113.341 10.6216 112.243 11.1226C112.243 12.4751 111.958 15.877 111.388 21.3282C110.818 26.7794 110.533 30.268 110.531 31.794Z" fill="#504F4F"/>
<path d="M146.174 31.3192C145.213 32.426 144.029 33.3124 142.703 33.9192C141.276 34.5829 139.722 34.9184 138.152 34.9018C136.621 34.9312 135.113 34.5232 133.8 33.7246C132.555 32.9544 131.527 31.8729 130.813 30.5841C129.327 27.924 128.585 24.8824 128.586 21.4593C128.587 18.0362 129.416 14.9885 131.072 12.3163C132.73 9.64766 134.885 7.88881 137.537 7.0397C137.904 7.12704 138.109 7.30171 138.152 7.56372C136.73 8.42488 135.477 9.54441 134.456 10.8661C133.498 12.1325 132.836 13.8447 132.469 16.0026C133.372 13.4553 134.782 11.449 136.699 9.98366C138.616 8.51835 140.622 7.79055 142.719 7.80026C144.818 7.80026 146.604 8.71001 148.078 10.5295C149.552 12.349 150.289 14.9818 150.291 18.428C150.291 21.7856 149.699 24.8272 148.514 27.5528C147.926 28.9206 147.137 30.1904 146.174 31.3192ZM145.174 12.3727C144.204 10.9171 142.891 10.1893 141.234 10.1893C139.576 10.1893 138.049 10.8564 136.65 12.1907C135.215 13.5782 134.12 15.2868 133.453 17.1798C132.733 19.1343 132.364 21.2035 132.363 23.2897C132.363 26.1027 132.874 28.414 133.897 30.2238C134.919 32.0336 136.45 32.9367 138.489 32.9331C140.148 32.9331 141.611 32.2465 142.88 30.8734C144.198 29.4155 145.165 27.6688 145.706 25.7697C146.327 23.6916 146.637 21.5308 146.625 19.3596C146.625 16.1572 146.141 13.8283 145.174 12.3727Z" fill="#504F4F"/>
<path d="M160.864 34.5706C158.469 34.5706 156.456 33.5893 154.825 31.6267C153.195 29.664 152.377 26.8074 152.372 23.0568C152.372 20.2899 152.813 17.7663 153.696 15.4858C154.535 13.2649 155.972 11.3271 157.844 9.89266C159.667 8.45972 161.913 7.69056 164.22 7.70926C166.587 7.70926 168.309 8.2921 169.385 9.4578C170.462 10.6235 171.001 11.9578 171.002 13.4607C171.002 14.966 170.625 16.1712 169.872 17.0761C169.517 17.5146 169.068 17.8649 168.559 18.1002C168.049 18.3355 167.493 18.4495 166.934 18.4334C166.45 18.4164 165.972 18.3282 165.513 18.1714C166.082 17.5255 166.526 16.7768 166.821 15.9644C167.187 15.0612 167.379 14.0951 167.385 13.1186C167.408 12.2326 167.141 11.3638 166.625 10.6478C166.121 9.9612 165.319 9.61792 164.22 9.61792C162.562 9.61792 161.083 10.3105 159.782 11.6958C158.438 13.1493 157.434 14.8905 156.844 16.7904C156.188 18.8001 155.855 20.9036 155.858 23.0204C155.858 26.0299 156.429 28.2812 157.57 29.7744C158.711 31.2676 160.186 32.0172 161.997 32.0233C163.202 32.0233 164.44 31.6527 165.709 30.9116C167.011 30.1371 168.09 29.0321 168.841 27.7056C169.163 27.7071 169.477 27.8101 169.739 28.0004C170.019 28.1969 170.159 28.3916 170.159 28.5881C168.953 30.9001 167.435 32.503 165.607 33.397C164.135 34.1503 162.512 34.5518 160.864 34.5706Z" fill="#504F4F"/>
</g>
<defs>
<clipPath id="clip0_3852_69">
<rect width="171" height="45" fill="white"/>
</clipPath>
</defs>
</svg>
